<?xml version="1.0" encoding="utf-8"?>
<!-- Generator: Adobe Illustrator 22.0.1, SVG Export Plug-In . SVG Version: 6.00 Build 0)  -->
<svg version="1.1" id="Слой_1" xmlns="http://www.w3.org/2000/svg" xmlns:xlink="http://www.w3.org/1999/xlink" x="0px" y="0px"
	 viewBox="0 0 69.4 69.4" style="enable-background:new 0 0 69.4 69.4;" xml:space="preserve">
<style type="text/css">
	.st0{fill:#3FA9F5;}
	.st1{fill:none;stroke:#3FA9F5;stroke-miterlimit:10;}
	.st2{fill:none;stroke:#70CF29;stroke-miterlimit:10;}
</style>
<path class="st0" d="M49.9,25.9h-7.4v-1.6c0-2.3-1.8-4.1-4.1-4.1h-4.9c-2.3,0-4.1,1.8-4.1,4.1v1.6h-7.4c-2.3,0-4.1,1.8-4.1,4.1v15.7
	c0,2.3,1.8,4.1,4.1,4.1h27.8c2.3,0,4.1-1.8,4.1-4.1V30C54,27.8,52.1,25.9,49.9,25.9z M31.1,24.3c0-1.4,1.1-2.5,2.5-2.5h4.9
	c1.4,0,2.5,1.1,2.5,2.5v1.6h-9.8V24.3z M52.3,45.7c0,1.4-1.1,2.5-2.5,2.5H22.1c-1.4,0-2.5-1.1-2.5-2.5V30c0-1.4,1.1-2.5,2.5-2.5
	h27.8c1.4,0,2.5,1.1,2.5,2.5V45.7z"/>
<path class="st0" d="M29.5,39.1h-1.6v6.6h1.6V39.1z"/>
<path class="st0" d="M34.4,36.6h-1.6v9.1h1.6V36.6z"/>
<path class="st0" d="M39.3,34.1h-1.6v11.5h1.6V34.1z"/>
<path class="st0" d="M44.2,31.7h-1.6v14h1.6V31.7z"/>
<path class="st1" d="M12.5,60.8c6,5.3,13.9,8.3,22.6,8.6c18.6,0.5,33.8-14.8,34.3-34.6c0.2-8.7-3.2-16.7-8.5-22.8"/>
<path class="st2" d="M57.1,8.4C51.1,3.2,43.3,0,34.7,0C15.8,0,0.4,15.5,0.4,34.6c0,8.6,3.1,16.5,8.3,22.6"/>
</svg>
